<mxfile host="app.diagrams.net" modified="2023-10-13T12:58:58.587Z" agent="Mozilla/5.0 (Windows NT 10.0; Win64; x64) AppleWebKit/537.36 (KHTML, like Gecko) Chrome/117.0.0.0 Safari/537.36" etag="_JjTKqkjin7XrDESLgsS" version="22.0.4" type="github">
  <diagram name="ページ1" id="21Ub86jXEHeHZIK-sHaW">
    <mxGraphModel dx="1687" dy="836" grid="1" gridSize="10" guides="1" tooltips="1" connect="1" arrows="1" fold="1" page="1" pageScale="1" pageWidth="1169" pageHeight="827" math="0" shadow="0">
      <root>
        <mxCell id="0" />
        <mxCell id="1" parent="0" />
        <mxCell id="uPsoir4W_fIyA9gBqgu5-14" value="RevenueCat" style="rounded=0;whiteSpace=wrap;html=1;" vertex="1" parent="1">
          <mxGeometry x="270" y="270" width="120" height="60" as="geometry" />
        </mxCell>
        <mxCell id="uPsoir4W_fIyA9gBqgu5-21" value="Client" style="shape=image;html=1;verticalAlign=top;verticalLabelPosition=bottom;labelBackgroundColor=#ffffff;imageAspect=0;aspect=fixed;image=https://cdn3.iconfinder.com/data/icons/essential-pack-2/48/26-Smartphone-128.png" vertex="1" parent="1">
          <mxGeometry x="40" y="360" width="88" height="88" as="geometry" />
        </mxCell>
        <mxCell id="uPsoir4W_fIyA9gBqgu5-22" value="Cloudflare&lt;br&gt;Reverse Proxy" style="rounded=0;whiteSpace=wrap;html=1;" vertex="1" parent="1">
          <mxGeometry x="340" y="374" width="120" height="60" as="geometry" />
        </mxCell>
        <mxCell id="uPsoir4W_fIyA9gBqgu5-24" value="Backend&lt;br&gt;Server" style="rounded=0;whiteSpace=wrap;html=1;" vertex="1" parent="1">
          <mxGeometry x="585" y="374" width="120" height="60" as="geometry" />
        </mxCell>
        <mxCell id="uPsoir4W_fIyA9gBqgu5-25" value="GCP Services" style="swimlane;whiteSpace=wrap;html=1;" vertex="1" parent="1">
          <mxGeometry x="235" y="50" width="500" height="180" as="geometry" />
        </mxCell>
        <mxCell id="uPsoir4W_fIyA9gBqgu5-13" value="Firebase&lt;br&gt;Authentication" style="rounded=0;whiteSpace=wrap;html=1;" vertex="1" parent="uPsoir4W_fIyA9gBqgu5-25">
          <mxGeometry x="44" y="70" width="120" height="60" as="geometry" />
        </mxCell>
        <mxCell id="uPsoir4W_fIyA9gBqgu5-27" value="Text-to-Speech" style="rounded=0;whiteSpace=wrap;html=1;" vertex="1" parent="uPsoir4W_fIyA9gBqgu5-25">
          <mxGeometry x="190" y="70" width="120" height="60" as="geometry" />
        </mxCell>
        <mxCell id="uPsoir4W_fIyA9gBqgu5-28" value="Speech-to-Text" style="rounded=0;whiteSpace=wrap;html=1;" vertex="1" parent="uPsoir4W_fIyA9gBqgu5-25">
          <mxGeometry x="340" y="70" width="120" height="60" as="geometry" />
        </mxCell>
        <mxCell id="uPsoir4W_fIyA9gBqgu5-29" value="OpenAI API" style="rounded=0;whiteSpace=wrap;html=1;" vertex="1" parent="1">
          <mxGeometry x="760" y="230" width="120" height="60" as="geometry" />
        </mxCell>
        <mxCell id="uPsoir4W_fIyA9gBqgu5-34" value="" style="endArrow=classic;html=1;rounded=0;exitX=1;exitY=0.25;exitDx=0;exitDy=0;entryX=0;entryY=0.5;entryDx=0;entryDy=0;startArrow=classic;startFill=1;" edge="1" parent="1" source="uPsoir4W_fIyA9gBqgu5-21" target="uPsoir4W_fIyA9gBqgu5-14">
          <mxGeometry width="50" height="50" relative="1" as="geometry">
            <mxPoint x="220" y="430" as="sourcePoint" />
            <mxPoint x="270" y="380" as="targetPoint" />
          </mxGeometry>
        </mxCell>
        <mxCell id="uPsoir4W_fIyA9gBqgu5-35" value="" style="endArrow=classic;html=1;rounded=0;exitX=1;exitY=0.5;exitDx=0;exitDy=0;entryX=0;entryY=0.5;entryDx=0;entryDy=0;startArrow=classic;startFill=1;" edge="1" parent="1" source="uPsoir4W_fIyA9gBqgu5-21" target="uPsoir4W_fIyA9gBqgu5-22">
          <mxGeometry width="50" height="50" relative="1" as="geometry">
            <mxPoint x="420" y="380" as="sourcePoint" />
            <mxPoint x="470" y="330" as="targetPoint" />
          </mxGeometry>
        </mxCell>
        <mxCell id="uPsoir4W_fIyA9gBqgu5-37" value="" style="endArrow=classic;html=1;rounded=0;exitX=1;exitY=0.5;exitDx=0;exitDy=0;entryX=0;entryY=0.5;entryDx=0;entryDy=0;startArrow=classic;startFill=1;" edge="1" parent="1" source="uPsoir4W_fIyA9gBqgu5-22" target="uPsoir4W_fIyA9gBqgu5-24">
          <mxGeometry width="50" height="50" relative="1" as="geometry">
            <mxPoint x="420" y="380" as="sourcePoint" />
            <mxPoint x="470" y="330" as="targetPoint" />
          </mxGeometry>
        </mxCell>
        <mxCell id="uPsoir4W_fIyA9gBqgu5-38" value="" style="endArrow=classic;startArrow=classic;html=1;rounded=0;exitX=1;exitY=0;exitDx=0;exitDy=0;entryX=0;entryY=1;entryDx=0;entryDy=0;" edge="1" parent="1" source="uPsoir4W_fIyA9gBqgu5-21" target="uPsoir4W_fIyA9gBqgu5-13">
          <mxGeometry width="50" height="50" relative="1" as="geometry">
            <mxPoint x="140" y="360" as="sourcePoint" />
            <mxPoint x="190" y="310" as="targetPoint" />
          </mxGeometry>
        </mxCell>
        <mxCell id="uPsoir4W_fIyA9gBqgu5-39" value="" style="endArrow=classic;startArrow=classic;html=1;rounded=0;entryX=1;entryY=0.5;entryDx=0;entryDy=0;exitX=0;exitY=0;exitDx=0;exitDy=0;" edge="1" parent="1" source="uPsoir4W_fIyA9gBqgu5-24" target="uPsoir4W_fIyA9gBqgu5-14">
          <mxGeometry width="50" height="50" relative="1" as="geometry">
            <mxPoint x="420" y="380" as="sourcePoint" />
            <mxPoint x="470" y="330" as="targetPoint" />
          </mxGeometry>
        </mxCell>
        <mxCell id="uPsoir4W_fIyA9gBqgu5-40" value="" style="endArrow=classic;startArrow=classic;html=1;rounded=0;exitX=0.25;exitY=0;exitDx=0;exitDy=0;entryX=0.5;entryY=1;entryDx=0;entryDy=0;" edge="1" parent="1" source="uPsoir4W_fIyA9gBqgu5-24" target="uPsoir4W_fIyA9gBqgu5-27">
          <mxGeometry width="50" height="50" relative="1" as="geometry">
            <mxPoint x="860" y="440" as="sourcePoint" />
            <mxPoint x="910" y="390" as="targetPoint" />
          </mxGeometry>
        </mxCell>
        <mxCell id="uPsoir4W_fIyA9gBqgu5-41" value="" style="endArrow=classic;startArrow=classic;html=1;rounded=0;exitX=1;exitY=0;exitDx=0;exitDy=0;entryX=0.5;entryY=1;entryDx=0;entryDy=0;" edge="1" parent="1" source="uPsoir4W_fIyA9gBqgu5-24" target="uPsoir4W_fIyA9gBqgu5-29">
          <mxGeometry width="50" height="50" relative="1" as="geometry">
            <mxPoint x="880" y="470" as="sourcePoint" />
            <mxPoint x="930" y="420" as="targetPoint" />
          </mxGeometry>
        </mxCell>
        <mxCell id="uPsoir4W_fIyA9gBqgu5-42" value="" style="endArrow=classic;startArrow=classic;html=1;rounded=0;exitX=0.5;exitY=0;exitDx=0;exitDy=0;entryX=0.5;entryY=1;entryDx=0;entryDy=0;" edge="1" parent="1" source="uPsoir4W_fIyA9gBqgu5-24" target="uPsoir4W_fIyA9gBqgu5-28">
          <mxGeometry width="50" height="50" relative="1" as="geometry">
            <mxPoint x="780" y="510" as="sourcePoint" />
            <mxPoint x="830" y="460" as="targetPoint" />
          </mxGeometry>
        </mxCell>
      </root>
    </mxGraphModel>
  </diagram>
</mxfile>
